<svg width="152" height="39" viewBox="0 0 152 39" fill="none" xmlns="http://www.w3.org/2000/svg">
<path d="M0.559214 38H12.092V37.7355C8.6533 36.9419 8.23008 35.2491 8.23008 31.2285V19.5899H16.959C18.599 19.5899 21.3499 19.8015 22.2493 23.8221H22.5138V14.141H22.2493C21.3499 18.2144 18.599 18.4261 16.959 18.4261H8.23008V7.73975C8.23008 3.71916 9.02362 2.07918 12.4094 2.07918H20.5564C25.7408 2.07918 27.6982 5.04172 29.2853 8.16297H29.6027L27.6982 0.439196H27.0634C25.7408 0.968221 25.5292 0.968221 21.5615 0.968221H0.559214V1.23273C3.99788 2.02627 4.4211 3.71916 4.4211 7.73975V31.2285C4.4211 35.2491 3.99788 36.9419 0.559214 37.7355V38ZM62.6825 38.529H63.3173L65.8037 30.7524H65.4863C63.8993 33.8736 61.4128 36.889 56.2284 36.889H47.0233C43.6376 36.889 42.844 35.2491 42.844 31.2285V19.5899H51.573C53.2129 19.5899 55.9639 19.8015 56.8632 23.8221H57.1277V14.141H56.8632C55.9639 18.2144 53.2129 18.4261 51.573 18.4261H42.844V7.73975C42.844 3.71916 43.6376 2.07918 47.0233 2.07918H54.6413C59.8258 2.07918 61.7832 5.04172 63.3702 8.16297H63.6876L61.7832 0.439196H61.1483C59.8258 0.968221 59.6142 0.968221 55.6465 0.968221H35.1732V1.23273C38.6118 2.02627 39.0351 3.71916 39.0351 7.73975V31.2285C39.0351 35.2491 38.6118 36.9419 35.1732 37.7355V38H57.2335C61.2012 38 61.3599 38 62.6825 38.529ZM98.3173 38.529H98.9522L101.439 30.7524H101.121C99.5341 33.8736 97.0477 36.889 91.8632 36.889H83.1872C79.8014 36.889 79.0079 35.2491 79.0079 31.2285V7.73975C79.0079 3.71916 79.4311 2.02627 82.8698 1.23273V0.968221H71.337V1.23273C74.7757 2.02627 75.1989 3.71916 75.1989 7.73975V31.2285C75.1989 35.2491 74.7757 36.9419 71.337 37.7355V38H92.8684C96.836 38 96.9948 38 98.3173 38.529ZM106.778 38H118.31V37.7355C114.872 36.9419 114.448 35.2491 114.448 31.2285V7.73975C114.448 3.71916 114.872 2.02627 118.31 1.23273V0.968221H106.778V1.23273C110.216 2.02627 110.639 3.71916 110.639 7.73975V31.2285C110.639 35.2491 110.216 36.9419 106.778 37.7355V38ZM139.072 38.5819C145.737 38.5819 151.504 35.2491 151.504 28.4775C151.504 15.0403 128.438 18.3732 128.438 8.48038C128.438 4.08947 133.252 1.39144 137.908 1.39144C141.029 1.39144 144.045 2.5553 145.579 5.14752C146.69 6.94621 146.531 9.00941 148.647 9.00941C149.864 9.00941 150.393 8.16297 150.393 7.31653C150.446 5.94106 149.388 4.51269 147.642 3.29593C145.05 1.33854 141.664 0.439196 138.278 0.439196C131.93 0.439196 125.74 3.77206 125.74 10.0146C125.74 21.8118 148.118 19.5899 149.176 29.1124C149.229 29.3769 149.229 29.6414 149.229 29.9059C149.229 34.6671 144.732 37.3123 139.707 37.3123C135.95 37.3123 132.3 35.831 130.078 32.6568C128.914 31.0169 128.227 28.9008 126.428 28.9008C125.317 28.9008 124.576 29.8001 124.576 30.6994C124.576 32.1278 125.582 33.2917 127.01 34.4555C130.449 37.2594 134.787 38.5819 139.072 38.5819Z" fill="#1D1B19"/>
</svg>
